<?xml version="1.0" encoding="UTF-8"?>
<svg xmlns="http://www.w3.org/2000/svg" xmlns:xlink="http://www.w3.org/1999/xlink" width="708.661pt" height="708.661pt" viewBox="0 0 708.661 708.661" version="1.1">
<g id="surface1">
<path style=" stroke:none;fill-rule:nonzero;fill:rgb(19.999695%,19.999695%,19.999695%);fill-opacity:1;" d="M 145.292969 675.769531 L 142.652344 675.769531 L 142.652344 635.328125 L 145.292969 635.328125 Z M 145.292969 675.769531 "/>
<path style=" stroke:none;fill-rule:nonzero;fill:rgb(19.999695%,19.999695%,19.999695%);fill-opacity:1;" d="M 158.070313 675.769531 L 155.429688 675.769531 L 155.429688 648.113281 L 158.070313 648.113281 Z M 159.234375 638.582031 C 159.234375 638.914063 159.164063 639.226563 159.027344 639.511719 C 158.890625 639.800781 158.707031 640.054688 158.484375 640.277344 C 158.261719 640.5 158.003906 640.675781 157.707031 640.804688 C 157.410156 640.933594 157.09375 641 156.761719 641 C 156.429688 641 156.113281 640.933594 155.816406 640.804688 C 155.519531 640.675781 155.261719 640.5 155.039063 640.277344 C 154.816406 640.054688 154.640625 639.800781 154.511719 639.511719 C 154.378906 639.226563 154.316406 638.914063 154.316406 638.582031 C 154.316406 638.25 154.378906 637.929688 154.511719 637.621094 C 154.640625 637.316406 154.816406 637.054688 155.039063 636.832031 C 155.261719 636.605469 155.519531 636.433594 155.816406 636.304688 C 156.113281 636.175781 156.429688 636.109375 156.761719 636.109375 C 157.09375 636.109375 157.410156 636.175781 157.707031 636.304688 C 158.003906 636.433594 158.261719 636.605469 158.484375 636.832031 C 158.707031 637.054688 158.890625 637.316406 159.027344 637.621094 C 159.164063 637.929688 159.234375 638.25 159.234375 638.582031 "/>
<path style=" stroke:none;fill-rule:nonzero;fill:rgb(19.999695%,19.999695%,19.999695%);fill-opacity:1;" d="M 176.800781 663.539063 C 177.988281 663.539063 179.042969 663.371094 179.96875 663.027344 C 180.898438 662.6875 181.671875 662.207031 182.304688 661.597656 C 182.933594 660.984375 183.410156 660.25 183.738281 659.398438 C 184.058594 658.550781 184.222656 657.601563 184.222656 656.566406 C 184.222656 655.527344 184.054688 654.578125 183.722656 653.71875 C 183.386719 652.855469 182.902344 652.117188 182.261719 651.507813 C 181.621094 650.894531 180.847656 650.421875 179.929688 650.089844 C 179.011719 649.757813 177.96875 649.589844 176.800781 649.589844 C 175.632813 649.589844 174.585938 649.757813 173.660156 650.089844 C 172.734375 650.421875 171.949219 650.894531 171.3125 651.507813 C 170.671875 652.117188 170.1875 652.855469 169.851563 653.71875 C 169.519531 654.578125 169.351563 655.527344 169.351563 656.566406 C 169.351563 657.601563 169.519531 658.550781 169.851563 659.398438 C 170.1875 660.25 170.671875 660.984375 171.3125 661.597656 C 171.949219 662.207031 172.734375 662.6875 173.660156 663.027344 C 174.585938 663.371094 175.632813 663.539063 176.800781 663.539063 M 187.058594 677.636719 C 187.058594 676.761719 186.828125 676.0625 186.375 675.535156 C 185.921875 675.007813 185.316406 674.597656 184.554688 674.300781 C 183.796875 674 182.921875 673.792969 181.929688 673.675781 C 180.9375 673.550781 179.902344 673.464844 178.816406 673.40625 C 177.734375 673.355469 176.644531 673.296875 175.550781 673.242188 C 174.457031 673.1875 173.4375 673.074219 172.492188 672.90625 C 171.789063 673.1875 171.136719 673.507813 170.535156 673.867188 C 169.929688 674.230469 169.417969 674.636719 168.992188 675.089844 C 168.566406 675.542969 168.230469 676.042969 167.988281 676.59375 C 167.75 677.136719 167.628906 677.734375 167.628906 678.386719 C 167.628906 679.195313 167.835938 679.957031 168.253906 680.648438 C 168.671875 681.34375 169.28125 681.945313 170.089844 682.457031 C 170.894531 682.96875 171.882813 683.367188 173.046875 683.664063 C 174.21875 683.960938 175.558594 684.109375 177.078125 684.109375 C 178.488281 684.109375 179.796875 683.953125 181.011719 683.640625 C 182.226563 683.320313 183.28125 682.875 184.179688 682.304688 C 185.078125 681.730469 185.785156 681.042969 186.292969 680.246094 C 186.804688 679.449219 187.058594 678.578125 187.058594 677.636719 M 176.800781 647.644531 C 178.003906 647.644531 179.121094 647.792969 180.152344 648.089844 C 181.179688 648.386719 182.101563 648.804688 182.914063 649.339844 L 190.003906 649.339844 L 190.003906 650.257813 C 190.003906 650.722656 189.742188 650.972656 189.226563 651.007813 L 185.027344 651.3125 C 185.546875 652.019531 185.945313 652.808594 186.222656 653.6875 C 186.5 654.566406 186.640625 655.511719 186.640625 656.511719 C 186.640625 657.84375 186.398438 659.054688 185.917969 660.140625 C 185.433594 661.222656 184.765625 662.144531 183.902344 662.914063 C 183.042969 663.6875 182.007813 664.28125 180.804688 664.707031 C 179.597656 665.136719 178.265625 665.347656 176.800781 665.347656 C 175.207031 665.347656 173.761719 665.109375 172.46875 664.625 C 171.6875 665.066406 171.074219 665.597656 170.628906 666.207031 C 170.1875 666.820313 169.960938 667.414063 169.960938 667.988281 C 169.960938 668.785156 170.242188 669.398438 170.796875 669.824219 C 171.355469 670.25 172.089844 670.5625 173.007813 670.753906 C 173.925781 670.949219 174.96875 671.070313 176.148438 671.132813 C 177.324219 671.183594 178.519531 671.242188 179.734375 671.3125 C 180.945313 671.375 182.140625 671.488281 183.320313 671.65625 C 184.496094 671.824219 185.542969 672.117188 186.460938 672.53125 C 187.378906 672.949219 188.113281 673.535156 188.667969 674.285156 C 189.226563 675.03125 189.503906 676.03125 189.503906 677.269531 C 189.503906 678.421875 189.214844 679.523438 188.640625 680.578125 C 188.066406 681.636719 187.238281 682.570313 186.15625 683.386719 C 185.070313 684.199219 183.757813 684.855469 182.222656 685.347656 C 180.683594 685.839844 178.960938 686.082031 177.050781 686.082031 C 175.105469 686.082031 173.402344 685.886719 171.9375 685.484375 C 170.472656 685.089844 169.246094 684.550781 168.253906 683.871094 C 167.261719 683.195313 166.519531 682.414063 166.019531 681.523438 C 165.515625 680.636719 165.265625 679.6875 165.265625 678.6875 C 165.265625 677.230469 165.746094 675.964844 166.710938 674.910156 C 167.675781 673.855469 169 673.039063 170.6875 672.464844 C 169.761719 672.148438 169.023438 671.695313 168.476563 671.101563 C 167.929688 670.511719 167.65625 669.683594 167.65625 668.628906 C 167.65625 668.238281 167.730469 667.832031 167.878906 667.402344 C 168.027344 666.980469 168.25 666.558594 168.546875 666.140625 C 168.84375 665.722656 169.199219 665.332031 169.617188 664.957031 C 170.03125 664.589844 170.519531 664.257813 171.074219 663.957031 C 169.761719 663.199219 168.734375 662.1875 168.003906 660.929688 C 167.273438 659.667969 166.90625 658.195313 166.90625 656.511719 C 166.90625 655.179688 167.144531 653.96875 167.613281 652.882813 C 168.085938 651.800781 168.753906 650.867188 169.617188 650.089844 C 170.480469 649.3125 171.519531 648.710938 172.742188 648.28125 C 173.96875 647.855469 175.320313 647.644531 176.800781 647.644531 "/>
<path style=" stroke:none;fill-rule:nonzero;fill:rgb(19.999695%,19.999695%,19.999695%);fill-opacity:1;" d="M 202.902344 674.296875 C 203.980469 674.296875 204.96875 674.183594 205.863281 673.949219 C 206.761719 673.71875 207.597656 673.394531 208.367188 672.976563 C 209.136719 672.5625 209.855469 672.066406 210.519531 671.488281 C 211.1875 670.914063 211.84375 670.296875 212.492188 669.628906 L 212.492188 662.429688 C 209.863281 662.503906 207.597656 662.703125 205.699219 663.027344 C 203.796875 663.351563 202.234375 663.789063 201 664.347656 C 199.769531 664.902344 198.859375 665.570313 198.277344 666.335938 C 197.691406 667.105469 197.402344 667.980469 197.402344 668.960938 C 197.402344 669.890625 197.554688 670.691406 197.859375 671.363281 C 198.164063 672.042969 198.566406 672.601563 199.070313 673.03125 C 199.570313 673.46875 200.152344 673.789063 200.820313 673.988281 C 201.488281 674.195313 202.183594 674.296875 202.902344 674.296875 M 214.023438 675.773438 C 213.46875 675.773438 213.121094 675.515625 212.992188 674.996094 L 212.605469 671.464844 C 211.84375 672.203125 211.089844 672.871094 210.339844 673.464844 C 209.589844 674.058594 208.804688 674.558594 207.992188 674.964844 C 207.175781 675.371094 206.296875 675.683594 205.351563 675.898438 C 204.40625 676.109375 203.367188 676.214844 202.238281 676.214844 C 201.292969 676.214844 200.375 676.074219 199.484375 675.796875 C 198.597656 675.523438 197.808594 675.09375 197.121094 674.523438 C 196.4375 673.945313 195.886719 673.210938 195.46875 672.3125 C 195.050781 671.410156 194.84375 670.332031 194.84375 669.074219 C 194.84375 667.90625 195.175781 666.820313 195.84375 665.820313 C 196.511719 664.820313 197.554688 663.949219 198.972656 663.207031 C 200.390625 662.46875 202.214844 661.875 204.445313 661.425781 C 206.679688 660.984375 209.363281 660.726563 212.492188 660.652344 L 212.492188 657.757813 C 212.492188 655.203125 211.941406 653.234375 210.839844 651.855469 C 209.738281 650.476563 208.101563 649.78125 205.933594 649.78125 C 204.601563 649.78125 203.464844 649.96875 202.53125 650.339844 C 201.59375 650.710938 200.800781 651.117188 200.152344 651.5625 C 199.503906 652.003906 198.976563 652.414063 198.566406 652.785156 C 198.160156 653.152344 197.820313 653.339844 197.539063 653.339844 C 197.167969 653.339844 196.890625 653.175781 196.707031 652.839844 L 196.234375 652.035156 C 197.679688 650.589844 199.199219 649.496094 200.792969 648.753906 C 202.386719 648.015625 204.191406 647.644531 206.210938 647.644531 C 207.695313 647.644531 208.992188 647.878906 210.101563 648.351563 C 211.214844 648.824219 212.136719 649.5 212.867188 650.382813 C 213.601563 651.257813 214.152344 652.324219 214.523438 653.574219 C 214.894531 654.828125 215.078125 656.21875 215.078125 657.757813 L 215.078125 675.773438 Z M 214.023438 675.773438 "/>
<path style=" stroke:none;fill-rule:nonzero;fill:rgb(19.999695%,19.999695%,19.999695%);fill-opacity:1;" d="M 246.042969 663.539063 C 247.226563 663.539063 248.285156 663.371094 249.207031 663.027344 C 250.136719 662.6875 250.914063 662.207031 251.546875 661.597656 C 252.171875 660.984375 252.652344 660.25 252.976563 659.398438 C 253.300781 658.550781 253.460938 657.601563 253.460938 656.566406 C 253.460938 655.527344 253.296875 654.578125 252.960938 653.71875 C 252.628906 652.855469 252.140625 652.117188 251.503906 651.507813 C 250.863281 650.894531 250.085938 650.421875 249.167969 650.089844 C 248.25 649.757813 247.207031 649.589844 246.042969 649.589844 C 244.875 649.589844 243.828125 649.757813 242.902344 650.089844 C 241.972656 650.421875 241.191406 650.894531 240.550781 651.507813 C 239.914063 652.117188 239.425781 652.855469 239.09375 653.71875 C 238.757813 654.578125 238.59375 655.527344 238.59375 656.566406 C 238.59375 657.601563 238.757813 658.550781 239.09375 659.398438 C 239.425781 660.25 239.914063 660.984375 240.550781 661.597656 C 241.191406 662.207031 241.972656 662.6875 242.902344 663.027344 C 243.828125 663.371094 244.875 663.539063 246.042969 663.539063 M 256.296875 677.636719 C 256.296875 676.761719 256.070313 676.0625 255.617188 675.535156 C 255.160156 675.007813 254.554688 674.597656 253.796875 674.300781 C 253.035156 674 252.160156 673.792969 251.167969 673.675781 C 250.179688 673.550781 249.140625 673.464844 248.054688 673.40625 C 246.972656 673.355469 245.882813 673.296875 244.789063 673.242188 C 243.699219 673.1875 242.675781 673.074219 241.734375 672.90625 C 241.027344 673.1875 240.375 673.507813 239.773438 673.867188 C 239.171875 674.230469 238.65625 674.636719 238.230469 675.089844 C 237.804688 675.542969 237.472656 676.042969 237.230469 676.59375 C 236.988281 677.136719 236.871094 677.734375 236.871094 678.386719 C 236.871094 679.195313 237.078125 679.957031 237.496094 680.648438 C 237.910156 681.34375 238.523438 681.945313 239.328125 682.457031 C 240.136719 682.96875 241.121094 683.367188 242.289063 683.664063 C 243.457031 683.960938 244.800781 684.109375 246.320313 684.109375 C 247.726563 684.109375 249.039063 683.953125 250.253906 683.640625 C 251.464844 683.320313 252.523438 682.875 253.421875 682.304688 C 254.320313 681.730469 255.023438 681.042969 255.53125 680.246094 C 256.042969 679.449219 256.296875 678.578125 256.296875 677.636719 M 246.042969 647.644531 C 247.246094 647.644531 248.363281 647.792969 249.390625 648.089844 C 250.417969 648.386719 251.339844 648.804688 252.15625 649.339844 L 259.242188 649.339844 L 259.242188 650.257813 C 259.242188 650.722656 258.984375 650.972656 258.464844 651.007813 L 254.269531 651.3125 C 254.785156 652.019531 255.1875 652.808594 255.464844 653.6875 C 255.742188 654.566406 255.882813 655.511719 255.882813 656.511719 C 255.882813 657.84375 255.640625 659.054688 255.15625 660.140625 C 254.675781 661.222656 254.003906 662.144531 253.144531 662.914063 C 252.28125 663.6875 251.25 664.28125 250.042969 664.707031 C 248.839844 665.136719 247.503906 665.347656 246.042969 665.347656 C 244.449219 665.347656 243.003906 665.109375 241.707031 664.625 C 240.925781 665.066406 240.316406 665.597656 239.871094 666.207031 C 239.425781 666.820313 239.203125 667.414063 239.203125 667.988281 C 239.203125 668.785156 239.480469 669.398438 240.039063 669.824219 C 240.59375 670.25 241.332031 670.5625 242.246094 670.753906 C 243.164063 670.949219 244.210938 671.070313 245.386719 671.132813 C 246.566406 671.183594 247.761719 671.242188 248.972656 671.3125 C 250.1875 671.375 251.382813 671.488281 252.558594 671.65625 C 253.738281 671.824219 254.78125 672.117188 255.699219 672.53125 C 256.617188 672.949219 257.351563 673.535156 257.910156 674.285156 C 258.464844 675.03125 258.742188 676.03125 258.742188 677.269531 C 258.742188 678.421875 258.457031 679.523438 257.882813 680.578125 C 257.304688 681.636719 256.476563 682.570313 255.394531 683.386719 C 254.308594 684.199219 253 684.855469 251.460938 685.347656 C 249.921875 685.839844 248.199219 686.082031 246.292969 686.082031 C 244.347656 686.082031 242.640625 685.886719 241.175781 685.484375 C 239.710938 685.089844 238.488281 684.550781 237.496094 683.871094 C 236.503906 683.195313 235.757813 682.414063 235.257813 681.523438 C 234.757813 680.636719 234.507813 679.6875 234.507813 678.6875 C 234.507813 677.230469 234.988281 675.964844 235.953125 674.910156 C 236.917969 673.855469 238.238281 673.039063 239.925781 672.464844 C 239 672.148438 238.261719 671.695313 237.714844 671.101563 C 237.171875 670.511719 236.894531 669.683594 236.894531 668.628906 C 236.894531 668.238281 236.972656 667.832031 237.121094 667.402344 C 237.265625 666.980469 237.492188 666.558594 237.785156 666.140625 C 238.082031 665.722656 238.441406 665.332031 238.855469 664.957031 C 239.273438 664.589844 239.761719 664.257813 240.316406 663.957031 C 239 663.199219 237.976563 662.1875 237.246094 660.929688 C 236.511719 659.667969 236.148438 658.195313 236.148438 656.511719 C 236.148438 655.179688 236.382813 653.96875 236.855469 652.882813 C 237.328125 651.800781 237.996094 650.867188 238.855469 650.089844 C 239.71875 649.3125 240.761719 648.710938 241.984375 648.28125 C 243.207031 647.855469 244.558594 647.644531 246.042969 647.644531 "/>
<path style=" stroke:none;fill-rule:nonzero;fill:rgb(19.999695%,19.999695%,19.999695%);fill-opacity:1;" d="M 268.714844 675.769531 L 266.074219 675.769531 L 266.074219 648.113281 L 268.714844 648.113281 Z M 269.882813 638.582031 C 269.882813 638.914063 269.8125 639.226563 269.675781 639.511719 C 269.535156 639.800781 269.355469 640.054688 269.132813 640.277344 C 268.910156 640.5 268.652344 640.675781 268.355469 640.804688 C 268.058594 640.933594 267.742188 641 267.410156 641 C 267.074219 641 266.761719 640.933594 266.464844 640.804688 C 266.167969 640.675781 265.910156 640.5 265.6875 640.277344 C 265.464844 640.054688 265.289063 639.800781 265.160156 639.511719 C 265.027344 639.226563 264.964844 638.914063 264.964844 638.582031 C 264.964844 638.25 265.027344 637.929688 265.160156 637.621094 C 265.289063 637.316406 265.464844 637.054688 265.6875 636.832031 C 265.910156 636.605469 266.167969 636.433594 266.464844 636.304688 C 266.761719 636.175781 267.074219 636.109375 267.410156 636.109375 C 267.742188 636.109375 268.058594 636.175781 268.355469 636.304688 C 268.652344 636.433594 268.910156 636.605469 269.132813 636.832031 C 269.355469 637.054688 269.535156 637.316406 269.675781 637.621094 C 269.8125 637.929688 269.882813 638.25 269.882813 638.582031 "/>
<path style=" stroke:none;fill-rule:nonzero;fill:rgb(19.999695%,19.999695%,19.999695%);fill-opacity:1;" d="M 278.449219 675.769531 L 278.449219 648.117188 L 279.894531 648.117188 C 280.375 648.117188 280.652344 648.347656 280.726563 648.8125 L 280.976563 652.8125 C 281.515625 652.050781 282.089844 651.359375 282.703125 650.726563 C 283.3125 650.097656 283.964844 649.554688 284.660156 649.101563 C 285.355469 648.652344 286.097656 648.292969 286.886719 648.042969 C 287.671875 647.792969 288.5 647.667969 289.371094 647.667969 C 291.390625 647.667969 293.003906 648.257813 294.207031 649.433594 C 295.414063 650.613281 296.230469 652.25 296.65625 654.34375 C 296.984375 653.195313 297.453125 652.203125 298.054688 651.371094 C 298.65625 650.535156 299.347656 649.84375 300.121094 649.296875 C 300.898438 648.75 301.746094 648.339844 302.660156 648.074219 C 303.578125 647.804688 304.515625 647.667969 305.480469 647.667969 C 306.847656 647.667969 308.078125 647.898438 309.171875 648.351563 C 310.261719 648.804688 311.191406 649.476563 311.960938 650.371094 C 312.726563 651.253906 313.3125 652.351563 313.722656 653.644531 C 314.128906 654.945313 314.332031 656.425781 314.332031 658.09375 L 314.332031 675.769531 L 311.691406 675.769531 L 311.691406 658.09375 C 311.691406 655.386719 311.109375 653.328125 309.941406 651.910156 C 308.769531 650.492188 307.105469 649.78125 304.9375 649.78125 C 303.972656 649.78125 303.050781 649.960938 302.171875 650.3125 C 301.292969 650.664063 300.511719 651.1875 299.835938 651.878906 C 299.160156 652.578125 298.625 653.445313 298.222656 654.480469 C 297.824219 655.519531 297.628906 656.722656 297.628906 658.09375 L 297.628906 675.769531 L 294.988281 675.769531 L 294.988281 658.09375 C 294.988281 655.410156 294.449219 653.351563 293.375 651.921875 C 292.300781 650.496094 290.734375 649.78125 288.675781 649.78125 C 287.175781 649.78125 285.785156 650.230469 284.507813 651.132813 C 283.230469 652.03125 282.089844 653.277344 281.089844 654.871094 L 281.089844 675.769531 Z M 278.449219 675.769531 "/>
<path style=" stroke:none;fill-rule:nonzero;fill:rgb(19.999695%,19.999695%,19.999695%);fill-opacity:1;" d="M 323.269531 675.769531 L 323.269531 648.117188 L 324.714844 648.117188 C 325.195313 648.117188 325.472656 648.347656 325.546875 648.8125 L 325.796875 652.976563 C 327.058594 651.386719 328.527344 650.101563 330.203125 649.128906 C 331.882813 648.160156 333.746094 647.667969 335.804688 647.667969 C 337.320313 647.667969 338.664063 647.914063 339.820313 648.394531 C 340.980469 648.875 341.9375 649.570313 342.699219 650.476563 C 343.457031 651.386719 344.03125 652.480469 344.417969 653.757813 C 344.808594 655.039063 345.003906 656.480469 345.003906 658.09375 L 345.003906 675.769531 L 342.363281 675.769531 L 342.363281 658.09375 C 342.363281 655.5 341.769531 653.464844 340.585938 651.992188 C 339.398438 650.519531 337.585938 649.78125 335.136719 649.78125 C 333.320313 649.78125 331.636719 650.25 330.078125 651.1875 C 328.523438 652.125 327.132813 653.40625 325.90625 655.039063 L 325.90625 675.769531 Z M 323.269531 675.769531 "/>
<path style=" stroke:none;fill-rule:nonzero;fill:rgb(19.999695%,19.999695%,19.999695%);fill-opacity:1;" d="M 360.078125 674.296875 C 361.152344 674.296875 362.140625 674.183594 363.039063 673.949219 C 363.9375 673.71875 364.773438 673.394531 365.542969 672.976563 C 366.3125 672.5625 367.027344 672.066406 367.695313 671.488281 C 368.363281 670.914063 369.019531 670.296875 369.671875 669.628906 L 369.671875 662.429688 C 367.039063 662.503906 364.773438 662.703125 362.871094 663.027344 C 360.972656 663.351563 359.402344 663.789063 358.175781 664.347656 C 356.9375 664.902344 356.03125 665.570313 355.449219 666.335938 C 354.863281 667.105469 354.570313 667.980469 354.570313 668.960938 C 354.570313 669.890625 354.726563 670.691406 355.027344 671.363281 C 355.335938 672.042969 355.738281 672.601563 356.238281 673.03125 C 356.738281 673.46875 357.324219 673.789063 357.992188 673.988281 C 358.660156 674.195313 359.355469 674.296875 360.078125 674.296875 M 371.199219 675.773438 C 370.640625 675.773438 370.296875 675.515625 370.167969 674.996094 L 369.777344 671.464844 C 369.019531 672.203125 368.265625 672.871094 367.515625 673.464844 C 366.761719 674.058594 365.980469 674.558594 365.164063 674.964844 C 364.347656 675.371094 363.472656 675.683594 362.523438 675.898438 C 361.582031 676.109375 360.542969 676.214844 359.410156 676.214844 C 358.464844 676.214844 357.546875 676.074219 356.65625 675.796875 C 355.765625 675.523438 354.980469 675.09375 354.292969 674.523438 C 353.609375 673.945313 353.058594 673.210938 352.640625 672.3125 C 352.222656 671.410156 352.015625 670.332031 352.015625 669.074219 C 352.015625 667.90625 352.347656 666.820313 353.015625 665.820313 C 353.683594 664.820313 354.726563 663.949219 356.140625 663.207031 C 357.5625 662.46875 359.386719 661.875 361.621094 661.425781 C 363.855469 660.984375 366.539063 660.726563 369.671875 660.652344 L 369.671875 657.757813 C 369.671875 655.203125 369.117188 653.234375 368.015625 651.855469 C 366.914063 650.476563 365.277344 649.78125 363.105469 649.78125 C 361.773438 649.78125 360.636719 649.96875 359.703125 650.339844 C 358.765625 650.710938 357.972656 651.117188 357.324219 651.5625 C 356.675781 652.003906 356.148438 652.414063 355.738281 652.785156 C 355.332031 653.152344 354.988281 653.339844 354.710938 653.339844 C 354.339844 653.339844 354.0625 653.175781 353.878906 652.839844 L 353.402344 652.035156 C 354.847656 650.589844 356.371094 649.496094 357.964844 648.753906 C 359.558594 648.015625 361.363281 647.644531 363.386719 647.644531 C 364.867188 647.644531 366.167969 647.878906 367.277344 648.351563 C 368.390625 648.824219 369.3125 649.5 370.042969 650.382813 C 370.777344 651.257813 371.328125 652.324219 371.695313 653.574219 C 372.070313 654.828125 372.253906 656.21875 372.253906 657.757813 L 372.253906 675.773438 Z M 371.199219 675.773438 "/>
<path style=" stroke:none;fill-rule:nonzero;fill:rgb(19.999695%,19.999695%,19.999695%);fill-opacity:1;" d="M 396.265625 651.5625 C 396.136719 651.820313 395.933594 651.953125 395.65625 651.953125 C 395.453125 651.953125 395.1875 651.832031 394.863281 651.605469 C 394.539063 651.375 394.113281 651.113281 393.582031 650.828125 C 393.054688 650.539063 392.40625 650.28125 391.640625 650.046875 C 390.871094 649.816406 389.929688 649.699219 388.820313 649.699219 C 387.816406 649.699219 386.902344 649.84375 386.082031 650.128906 C 385.257813 650.417969 384.550781 650.800781 383.96875 651.28125 C 383.382813 651.757813 382.929688 652.320313 382.605469 652.957031 C 382.28125 653.59375 382.121094 654.265625 382.121094 654.964844 C 382.121094 655.835938 382.339844 656.558594 382.789063 657.128906 C 383.230469 657.703125 383.816406 658.1875 384.539063 658.597656 C 385.261719 659.003906 386.082031 659.355469 387 659.652344 C 387.914063 659.949219 388.855469 660.246094 389.820313 660.542969 C 390.78125 660.835938 391.722656 661.164063 392.640625 661.527344 C 393.558594 661.886719 394.375 662.335938 395.097656 662.875 C 395.820313 663.414063 396.40625 664.070313 396.851563 664.847656 C 397.292969 665.625 397.519531 666.574219 397.519531 667.683594 C 397.519531 668.886719 397.296875 670.007813 396.863281 671.046875 C 396.429688 672.085938 395.796875 672.980469 394.972656 673.742188 C 394.152344 674.5 393.136719 675.101563 391.929688 675.546875 C 390.726563 675.996094 389.355469 676.214844 387.816406 676.214844 C 385.871094 676.214844 384.195313 675.90625 382.789063 675.285156 C 381.378906 674.667969 380.117188 673.851563 379.007813 672.851563 L 379.644531 671.90625 C 379.738281 671.761719 379.839844 671.648438 379.949219 671.574219 C 380.0625 671.5 380.21875 671.464844 380.421875 671.464844 C 380.664063 671.464844 380.960938 671.613281 381.3125 671.90625 C 381.664063 672.207031 382.125 672.527344 382.691406 672.867188 C 383.253906 673.210938 383.957031 673.53125 384.800781 673.824219 C 385.644531 674.125 386.6875 674.269531 387.929688 674.269531 C 389.097656 674.269531 390.121094 674.105469 391.011719 673.785156 C 391.902344 673.457031 392.644531 673.019531 393.238281 672.460938 C 393.828125 671.90625 394.28125 671.253906 394.585938 670.503906 C 394.890625 669.753906 395.042969 668.960938 395.042969 668.125 C 395.042969 667.203125 394.820313 666.429688 394.375 665.824219 C 393.933594 665.207031 393.347656 664.691406 392.625 664.265625 C 391.902344 663.839844 391.082031 663.476563 390.164063 663.179688 C 389.246094 662.882813 388.300781 662.589844 387.332031 662.292969 C 386.359375 661.996094 385.414063 661.667969 384.496094 661.316406 C 383.578125 660.964844 382.757813 660.523438 382.035156 659.984375 C 381.3125 659.445313 380.730469 658.792969 380.285156 658.023438 C 379.839844 657.253906 379.617188 656.296875 379.617188 655.148438 C 379.617188 654.167969 379.832031 653.21875 380.257813 652.3125 C 380.683594 651.40625 381.289063 650.609375 382.078125 649.921875 C 382.867188 649.238281 383.824219 648.6875 384.953125 648.285156 C 386.082031 647.875 387.355469 647.667969 388.761719 647.667969 C 390.449219 647.667969 391.945313 647.914063 393.25 648.40625 C 394.554688 648.890625 395.757813 649.636719 396.851563 650.644531 Z M 396.265625 651.5625 "/>
<path style=" stroke:none;fill-rule:nonzero;fill:rgb(19.999695%,19.999695%,19.999695%);fill-opacity:1;" d="M 413.558594 676.214844 C 411.683594 676.214844 410.226563 675.695313 409.191406 674.660156 C 408.15625 673.621094 407.636719 672.023438 407.636719 669.851563 L 407.636719 650.949219 L 403.664063 650.949219 C 403.453125 650.949219 403.289063 650.894531 403.164063 650.785156 C 403.03125 650.671875 402.964844 650.515625 402.964844 650.3125 L 402.964844 649.28125 L 407.691406 648.949219 L 408.355469 639.054688 C 408.371094 638.890625 408.441406 638.738281 408.554688 638.609375 C 408.679688 638.480469 408.835938 638.414063 409.039063 638.414063 L 410.277344 638.414063 L 410.277344 648.976563 L 418.972656 648.976563 L 418.972656 650.949219 L 410.277344 650.949219 L 410.277344 669.710938 C 410.277344 670.472656 410.371094 671.125 410.566406 671.671875 C 410.765625 672.21875 411.03125 672.667969 411.371094 673.023438 C 411.714844 673.371094 412.121094 673.628906 412.585938 673.796875 C 413.042969 673.964844 413.542969 674.046875 414.085938 674.046875 C 414.753906 674.046875 415.324219 673.949219 415.804688 673.757813 C 416.289063 673.5625 416.707031 673.351563 417.058594 673.117188 C 417.410156 672.882813 417.699219 672.671875 417.917969 672.480469 C 418.140625 672.28125 418.316406 672.1875 418.449219 672.1875 C 418.59375 672.1875 418.746094 672.277344 418.894531 672.460938 L 419.613281 673.628906 C 418.914063 674.410156 418.019531 675.03125 416.933594 675.507813 C 415.847656 675.980469 414.726563 676.214844 413.558594 676.214844 "/>
<path style=" stroke:none;fill-rule:nonzero;fill:rgb(19.999695%,19.999695%,19.999695%);fill-opacity:1;" d="M 433.898438 684.664063 C 433.789063 684.925781 433.648438 685.136719 433.472656 685.304688 C 433.296875 685.472656 433.039063 685.554688 432.707031 685.554688 L 430.816406 685.554688 L 435.679688 674.742188 L 423.976563 648.113281 L 426.175781 648.113281 C 426.449219 648.113281 426.671875 648.1875 426.828125 648.324219 C 426.988281 648.464844 427.097656 648.613281 427.175781 648.78125 L 436.484375 670.296875 C 436.597656 670.574219 436.695313 670.855469 436.777344 671.144531 C 436.859375 671.433594 436.941406 671.722656 437.011719 672.019531 C 437.105469 671.722656 437.203125 671.433594 437.304688 671.144531 C 437.410156 670.855469 437.511719 670.574219 437.625 670.296875 L 446.828125 648.78125 C 446.917969 648.578125 447.046875 648.417969 447.214844 648.292969 C 447.378906 648.175781 447.566406 648.113281 447.769531 648.113281 L 449.800781 648.113281 Z M 433.898438 684.664063 "/>
<path style=" stroke:none;fill-rule:nonzero;fill:rgb(19.999695%,19.999695%,19.999695%);fill-opacity:1;" d="M 473.320313 651.8125 C 473.230469 651.90625 473.136719 651.984375 473.058594 652.046875 C 472.972656 652.113281 472.855469 652.144531 472.707031 652.144531 C 472.519531 652.144531 472.269531 652.019531 471.945313 651.769531 C 471.621094 651.519531 471.1875 651.246094 470.648438 650.953125 C 470.113281 650.65625 469.445313 650.382813 468.636719 650.132813 C 467.832031 649.878906 466.851563 649.753906 465.703125 649.753906 C 464.105469 649.753906 462.699219 650.039063 461.460938 650.601563 C 460.234375 651.167969 459.195313 651.980469 458.351563 653.039063 C 457.507813 654.089844 456.867188 655.371094 456.421875 656.871094 C 455.972656 658.371094 455.753906 660.058594 455.753906 661.929688 C 455.753906 663.875 455.980469 665.597656 456.433594 667.097656 C 456.886719 668.597656 457.535156 669.867188 458.367188 670.894531 C 459.199219 671.917969 460.210938 672.707031 461.394531 673.242188 C 462.582031 673.78125 463.894531 674.046875 465.34375 674.046875 C 466.675781 674.046875 467.792969 673.890625 468.691406 673.578125 C 469.589844 673.261719 470.332031 672.917969 470.917969 672.546875 C 471.5 672.175781 471.960938 671.832031 472.304688 671.519531 C 472.644531 671.207031 472.921875 671.046875 473.125 671.046875 C 473.363281 671.046875 473.550781 671.140625 473.679688 671.324219 L 474.40625 672.210938 C 473.976563 672.769531 473.441406 673.289063 472.792969 673.769531 C 472.140625 674.253906 471.414063 674.667969 470.597656 675.019531 C 469.78125 675.375 468.894531 675.644531 467.941406 675.839844 C 466.988281 676.035156 465.992188 676.128906 464.953125 676.128906 C 463.195313 676.128906 461.585938 675.8125 460.128906 675.171875 C 458.671875 674.535156 457.425781 673.609375 456.378906 672.394531 C 455.332031 671.179688 454.511719 669.695313 453.933594 667.933594 C 453.347656 666.171875 453.058594 664.171875 453.058594 661.929688 C 453.058594 659.820313 453.335938 657.890625 453.890625 656.152344 C 454.449219 654.410156 455.257813 652.90625 456.320313 651.644531 C 457.386719 650.386719 458.695313 649.410156 460.242188 648.710938 C 461.789063 648.015625 463.5625 647.667969 465.5625 647.667969 C 467.359375 647.667969 468.960938 647.957031 470.359375 648.53125 C 471.761719 649.105469 472.976563 649.886719 474.011719 650.867188 Z M 473.320313 651.8125 "/>
<path style=" stroke:none;fill-rule:nonzero;fill:rgb(19.999695%,19.999695%,19.999695%);fill-opacity:1;" d="M 500.34375 649.226563 C 500.34375 649.617188 500.210938 649.96875 499.949219 650.285156 L 482.636719 673.6875 L 499.644531 673.6875 L 499.644531 675.769531 L 479.4375 675.769531 L 479.4375 674.714844 C 479.4375 674.402344 479.578125 674.054688 479.859375 673.6875 L 497.230469 650.203125 L 480.359375 650.203125 L 480.359375 648.117188 L 500.34375 648.117188 Z M 500.34375 649.226563 "/>
<path style=" stroke:none;fill-rule:nonzero;fill:rgb(19.999695%,19.999695%,19.999695%);fill-opacity:1;" d="M 507.273438 675.769531 L 507.273438 648.117188 L 508.71875 648.117188 C 509.203125 648.117188 509.472656 648.347656 509.550781 648.8125 L 509.800781 652.976563 C 511.0625 651.386719 512.53125 650.101563 514.207031 649.128906 C 515.882813 648.160156 517.75 647.667969 519.808594 647.667969 C 521.328125 647.667969 522.664063 647.914063 523.824219 648.394531 C 524.980469 648.875 525.941406 649.570313 526.703125 650.476563 C 527.460938 651.386719 528.035156 652.480469 528.425781 653.757813 C 528.8125 655.039063 529.007813 656.480469 529.007813 658.09375 L 529.007813 675.769531 L 526.371094 675.769531 L 526.371094 658.09375 C 526.371094 655.5 525.773438 653.464844 524.589844 651.992188 C 523.402344 650.519531 521.589844 649.78125 519.140625 649.78125 C 517.328125 649.78125 515.640625 650.25 514.082031 651.1875 C 512.527344 652.125 511.132813 653.40625 509.914063 655.039063 L 509.914063 675.769531 Z M 507.273438 675.769531 "/>
<path style=" stroke:none;fill-rule:nonzero;fill:rgb(19.999695%,19.999695%,19.999695%);fill-opacity:1;" d="M 544.078125 674.296875 C 545.148438 674.296875 546.136719 674.183594 547.035156 673.949219 C 547.933594 673.71875 548.769531 673.394531 549.539063 672.976563 C 550.304688 672.5625 551.027344 672.066406 551.695313 671.488281 C 552.359375 670.914063 553.015625 670.296875 553.667969 669.628906 L 553.667969 662.429688 C 551.035156 662.503906 548.769531 662.703125 546.867188 663.027344 C 544.972656 663.351563 543.402344 663.789063 542.171875 664.347656 C 540.9375 664.902344 540.03125 665.570313 539.449219 666.335938 C 538.863281 667.105469 538.570313 667.980469 538.570313 668.960938 C 538.570313 669.890625 538.722656 670.691406 539.03125 671.363281 C 539.335938 672.042969 539.738281 672.601563 540.238281 673.03125 C 540.738281 673.46875 541.324219 673.789063 541.992188 673.988281 C 542.660156 674.195313 543.351563 674.296875 544.078125 674.296875 M 555.195313 675.773438 C 554.636719 675.773438 554.292969 675.515625 554.167969 674.996094 L 553.773438 671.464844 C 553.015625 672.203125 552.261719 672.871094 551.515625 673.464844 C 550.761719 674.058594 549.976563 674.558594 549.160156 674.964844 C 548.347656 675.371094 547.46875 675.683594 546.519531 675.898438 C 545.578125 676.109375 544.535156 676.214844 543.40625 676.214844 C 542.464844 676.214844 541.546875 676.074219 540.660156 675.796875 C 539.765625 675.523438 538.980469 675.09375 538.296875 674.523438 C 537.609375 673.945313 537.058594 673.210938 536.640625 672.3125 C 536.222656 671.410156 536.015625 670.332031 536.015625 669.074219 C 536.015625 667.90625 536.347656 666.820313 537.015625 665.820313 C 537.683594 664.820313 538.722656 663.949219 540.144531 663.207031 C 541.558594 662.46875 543.386719 661.875 545.621094 661.425781 C 547.851563 660.984375 550.535156 660.726563 553.667969 660.652344 L 553.667969 657.757813 C 553.667969 655.203125 553.113281 653.234375 552.015625 651.855469 C 550.910156 650.476563 549.273438 649.78125 547.105469 649.78125 C 545.773438 649.78125 544.636719 649.96875 543.699219 650.339844 C 542.765625 650.710938 541.972656 651.117188 541.324219 651.5625 C 540.675781 652.003906 540.148438 652.414063 539.738281 652.785156 C 539.335938 653.152344 538.992188 653.339844 538.710938 653.339844 C 538.34375 653.339844 538.0625 653.175781 537.878906 652.839844 L 537.402344 652.035156 C 538.851563 650.589844 540.371094 649.496094 541.964844 648.753906 C 543.554688 648.015625 545.363281 647.644531 547.386719 647.644531 C 548.863281 647.644531 550.160156 647.878906 551.273438 648.351563 C 552.386719 648.824219 553.308594 649.5 554.042969 650.382813 C 554.769531 651.257813 555.324219 652.324219 555.695313 653.574219 C 556.0625 654.828125 556.25 656.21875 556.25 657.757813 L 556.25 675.773438 Z M 555.195313 675.773438 "/>
<path style=" stroke:none;fill-rule:nonzero;fill:rgb(19.999695%,19.999695%,19.999695%);fill-opacity:1;" d="M 159.425781 608.4375 C 159.644531 608.949219 159.855469 609.46875 160.0625 609.992188 C 160.269531 609.453125 160.488281 608.925781 160.710938 608.40625 C 160.933594 607.882813 161.171875 607.386719 161.421875 606.910156 L 170.96875 589.042969 C 171.089844 588.820313 171.210938 588.644531 171.339844 588.507813 C 171.464844 588.375 171.605469 588.277344 171.761719 588.21875 C 171.917969 588.160156 172.09375 588.125 172.285156 588.105469 C 172.480469 588.09375 172.710938 588.085938 172.976563 588.085938 L 177.507813 588.085938 L 177.507813 620.335938 L 172.21875 620.335938 L 172.21875 599.503906 C 172.21875 599.117188 172.230469 598.695313 172.253906 598.234375 C 172.273438 597.769531 172.308594 597.304688 172.351563 596.828125 L 162.605469 615.121094 C 162.382813 615.535156 162.09375 615.855469 161.734375 616.085938 C 161.378906 616.320313 160.964844 616.433594 160.488281 616.433594 L 159.660156 616.433594 C 159.183594 616.433594 158.769531 616.320313 158.414063 616.085938 C 158.054688 615.855469 157.765625 615.535156 157.542969 615.121094 L 147.660156 596.757813 C 147.722656 597.253906 147.761719 597.730469 147.785156 598.203125 C 147.804688 598.667969 147.816406 599.101563 147.816406 599.503906 L 147.816406 620.335938 L 142.53125 620.335938 L 142.53125 588.085938 L 147.058594 588.085938 C 147.328125 588.085938 147.558594 588.09375 147.75 588.105469 C 147.945313 588.125 148.117188 588.160156 148.273438 588.21875 C 148.429688 588.277344 148.578125 588.375 148.710938 588.507813 C 148.84375 588.644531 148.96875 588.820313 149.089844 589.042969 L 158.726563 606.953125 C 158.976563 607.429688 159.210938 607.925781 159.425781 608.4375 "/>
<path style=" stroke:none;fill-rule:nonzero;fill:rgb(19.999695%,19.999695%,19.999695%);fill-opacity:1;" d="M 203.578125 608.15625 L 213.863281 608.15625 L 209.933594 597.429688 C 209.757813 596.957031 209.558594 596.394531 209.34375 595.75 C 209.128906 595.097656 208.917969 594.398438 208.707031 593.636719 C 208.5 594.398438 208.296875 595.101563 208.09375 595.757813 C 207.894531 596.410156 207.695313 596.980469 207.503906 597.472656 Z M 224.457031 620.335938 L 219.816406 620.335938 C 219.296875 620.335938 218.867188 620.207031 218.535156 619.945313 C 218.199219 619.683594 217.957031 619.363281 217.808594 618.976563 L 215.398438 612.398438 L 202.039063 612.398438 L 199.628906 618.976563 C 199.511719 619.316406 199.277344 619.632813 198.925781 619.914063 C 198.578125 620.195313 198.152344 620.335938 197.644531 620.335938 L 192.984375 620.335938 L 205.652344 588.085938 L 211.785156 588.085938 Z M 224.457031 620.335938 "/>
<path style=" stroke:none;fill-rule:nonzero;fill:rgb(19.999695%,19.999695%,19.999695%);fill-opacity:1;" d="M 246.882813 600.929688 L 254.871094 596.941406 L 254.871094 600.953125 C 254.871094 601.503906 254.625 601.910156 254.132813 602.160156 L 246.882813 605.929688 L 246.882813 615.382813 L 259.796875 615.382813 L 259.796875 620.335938 L 240.882813 620.335938 L 240.882813 608.558594 L 236.871094 610.566406 L 236.871094 606.445313 C 236.871094 605.964844 237.101563 605.609375 237.5625 605.371094 L 240.882813 603.652344 L 240.882813 588.085938 L 246.882813 588.085938 Z M 246.882813 600.929688 "/>
<path style=" stroke:none;fill-rule:nonzero;fill:rgb(19.999695%,19.999695%,19.999695%);fill-opacity:1;" d="M 299.65625 604.210938 C 299.65625 602.441406 299.421875 600.855469 298.953125 599.449219 C 298.484375 598.042969 297.8125 596.851563 296.933594 595.867188 C 296.058594 594.890625 294.992188 594.136719 293.734375 593.613281 C 292.476563 593.097656 291.0625 592.835938 289.484375 592.835938 C 287.910156 592.835938 286.488281 593.097656 285.226563 593.613281 C 283.960938 594.136719 282.886719 594.890625 282 595.867188 C 281.117188 596.851563 280.4375 598.042969 279.960938 599.449219 C 279.484375 600.855469 279.246094 602.441406 279.246094 604.210938 C 279.246094 605.980469 279.484375 607.570313 279.960938 608.972656 C 280.4375 610.378906 281.117188 611.566406 282 612.539063 C 282.886719 613.515625 283.960938 614.261719 285.226563 614.78125 C 286.488281 615.304688 287.910156 615.566406 289.484375 615.566406 C 291.0625 615.566406 292.476563 615.304688 293.734375 614.78125 C 294.992188 614.261719 296.058594 613.515625 296.933594 612.539063 C 297.8125 611.566406 298.484375 610.378906 298.953125 608.972656 C 299.421875 607.570313 299.65625 605.980469 299.65625 604.210938 M 305.8125 604.210938 C 305.8125 606.574219 305.417969 608.765625 304.628906 610.777344 C 303.84375 612.792969 302.734375 614.539063 301.308594 616.011719 C 299.878906 617.480469 298.160156 618.632813 296.15625 619.453125 C 294.148438 620.28125 291.925781 620.691406 289.484375 620.691406 C 287.046875 620.691406 284.820313 620.28125 282.804688 619.453125 C 280.789063 618.632813 279.066406 617.480469 277.628906 616.011719 C 276.195313 614.539063 275.082031 612.792969 274.296875 610.777344 C 273.507813 608.765625 273.113281 606.574219 273.113281 604.210938 C 273.113281 601.847656 273.507813 599.65625 274.296875 597.640625 C 275.082031 595.625 276.195313 593.882813 277.628906 592.410156 C 279.066406 590.941406 280.789063 589.792969 282.804688 588.96875 C 284.820313 588.140625 287.046875 587.730469 289.484375 587.730469 C 291.925781 587.730469 294.148438 588.144531 296.15625 588.976563 C 298.160156 589.8125 299.878906 590.957031 301.308594 592.421875 C 302.734375 593.890625 303.84375 595.625 304.628906 597.640625 C 305.417969 599.65625 305.8125 601.847656 305.8125 604.210938 "/>
<path style=" stroke:none;fill-rule:nonzero;fill:rgb(19.999695%,19.999695%,19.999695%);fill-opacity:1;" d="M 328.914063 604.296875 L 333.417969 604.296875 C 334.519531 604.296875 335.480469 604.160156 336.296875 603.890625 C 337.113281 603.613281 337.792969 603.21875 338.324219 602.703125 C 338.863281 602.195313 339.261719 601.570313 339.53125 600.832031 C 339.800781 600.09375 339.933594 599.277344 339.933594 598.367188 C 339.933594 597.503906 339.800781 596.726563 339.53125 596.027344 C 339.261719 595.324219 338.863281 594.730469 338.324219 594.238281 C 337.792969 593.75 337.113281 593.371094 336.296875 593.113281 C 335.480469 592.855469 334.519531 592.722656 333.417969 592.722656 L 328.914063 592.722656 Z M 328.914063 608.984375 L 328.914063 620.335938 L 322.914063 620.335938 L 322.914063 588.085938 L 333.417969 588.085938 C 335.574219 588.085938 337.441406 588.339844 339.019531 588.84375 C 340.59375 589.347656 341.894531 590.054688 342.921875 590.960938 C 343.945313 591.871094 344.707031 592.953125 345.195313 594.21875 C 345.6875 595.484375 345.929688 596.863281 345.929688 598.367188 C 345.929688 599.925781 345.671875 601.359375 345.152344 602.660156 C 344.628906 603.960938 343.851563 605.082031 342.8125 606.019531 C 341.769531 606.953125 340.46875 607.683594 338.90625 608.203125 C 337.34375 608.726563 335.515625 608.984375 333.417969 608.984375 Z M 328.914063 608.984375 "/>
<path style=" stroke:none;fill-rule:nonzero;fill:rgb(19.999695%,19.999695%,19.999695%);fill-opacity:1;" d="M 387.53125 604.210938 C 387.53125 602.441406 387.300781 600.855469 386.832031 599.449219 C 386.363281 598.042969 385.691406 596.851563 384.8125 595.867188 C 383.933594 594.890625 382.871094 594.136719 381.613281 593.613281 C 380.355469 593.097656 378.941406 592.835938 377.363281 592.835938 C 375.789063 592.835938 374.367188 593.097656 373.101563 593.613281 C 371.839844 594.136719 370.765625 594.890625 369.882813 595.867188 C 368.996094 596.851563 368.316406 598.042969 367.839844 599.449219 C 367.363281 600.855469 367.125 602.441406 367.125 604.210938 C 367.125 605.980469 367.363281 607.570313 367.839844 608.972656 C 368.316406 610.378906 368.996094 611.566406 369.882813 612.539063 C 370.765625 613.515625 371.839844 614.261719 373.101563 614.78125 C 374.367188 615.304688 375.789063 615.566406 377.363281 615.566406 C 378.941406 615.566406 380.355469 615.304688 381.613281 614.78125 C 382.871094 614.261719 383.933594 613.515625 384.8125 612.539063 C 385.691406 611.566406 386.363281 610.378906 386.832031 608.972656 C 387.300781 607.570313 387.53125 605.980469 387.53125 604.210938 M 393.691406 604.210938 C 393.691406 606.574219 393.296875 608.765625 392.507813 610.777344 C 391.722656 612.792969 390.613281 614.539063 389.183594 616.011719 C 387.757813 617.480469 386.042969 618.632813 384.03125 619.453125 C 382.023438 620.28125 379.804688 620.691406 377.363281 620.691406 C 374.925781 620.691406 372.699219 620.28125 370.683594 619.453125 C 368.667969 618.632813 366.941406 617.480469 365.507813 616.011719 C 364.074219 614.539063 362.960938 612.792969 362.175781 610.777344 C 361.386719 608.765625 360.992188 606.574219 360.992188 604.210938 C 360.992188 601.847656 361.386719 599.65625 362.175781 597.640625 C 362.960938 595.625 364.074219 593.882813 365.507813 592.410156 C 366.941406 590.941406 368.667969 589.792969 370.683594 588.96875 C 372.699219 588.140625 374.925781 587.730469 377.363281 587.730469 C 379.804688 587.730469 382.023438 588.144531 384.03125 588.976563 C 386.042969 589.8125 387.757813 590.957031 389.183594 592.421875 C 390.613281 593.890625 391.722656 595.625 392.507813 597.640625 C 393.296875 599.65625 393.691406 601.847656 393.691406 604.210938 "/>
<path style=" stroke:none;fill-rule:nonzero;fill:rgb(19.999695%,19.999695%,19.999695%);fill-opacity:1;" d="M 416.683594 615.382813 L 429.597656 615.382813 L 429.597656 620.335938 L 410.6875 620.335938 L 410.6875 588.085938 L 416.683594 588.085938 Z M 416.683594 615.382813 "/>
<path style=" stroke:none;fill-rule:nonzero;fill:rgb(19.999695%,19.999695%,19.999695%);fill-opacity:1;" d="M 463.957031 593.949219 C 463.796875 594.277344 463.605469 594.507813 463.390625 594.640625 C 463.171875 594.773438 462.917969 594.84375 462.617188 594.84375 C 462.320313 594.84375 461.988281 594.726563 461.617188 594.496094 C 461.242188 594.265625 460.808594 594.011719 460.300781 593.726563 C 459.792969 593.445313 459.203125 593.1875 458.527344 592.960938 C 457.851563 592.726563 457.050781 592.613281 456.128906 592.613281 C 455.296875 592.613281 454.570313 592.714844 453.957031 592.914063 C 453.335938 593.113281 452.816406 593.390625 452.394531 593.753906 C 451.96875 594.105469 451.652344 594.53125 451.445313 595.03125 C 451.234375 595.53125 451.132813 596.078125 451.132813 596.675781 C 451.132813 597.429688 451.347656 598.0625 451.769531 598.566406 C 452.191406 599.074219 452.753906 599.503906 453.453125 599.859375 C 454.152344 600.222656 454.945313 600.539063 455.839844 600.820313 C 456.730469 601.101563 457.640625 601.402344 458.570313 601.722656 C 459.5 602.046875 460.410156 602.414063 461.304688 602.839844 C 462.195313 603.265625 462.988281 603.800781 463.691406 604.445313 C 464.390625 605.09375 464.949219 605.882813 465.375 606.820313 C 465.796875 607.757813 466.011719 608.894531 466.011719 610.234375 C 466.011719 611.6875 465.761719 613.054688 465.265625 614.324219 C 464.765625 615.597656 464.035156 616.703125 463.074219 617.648438 C 462.117188 618.59375 460.949219 619.335938 459.5625 619.882813 C 458.179688 620.425781 456.597656 620.691406 454.8125 620.691406 C 453.785156 620.691406 452.773438 620.59375 451.78125 620.390625 C 450.78125 620.191406 449.828125 619.90625 448.914063 619.535156 C 447.996094 619.164063 447.144531 618.71875 446.351563 618.195313 C 445.554688 617.675781 444.84375 617.09375 444.21875 616.453125 L 445.960938 613.578125 C 446.121094 613.371094 446.316406 613.195313 446.550781 613.054688 C 446.777344 612.910156 447.035156 612.84375 447.316406 612.84375 C 447.6875 612.84375 448.09375 612.996094 448.523438 613.300781 C 448.953125 613.601563 449.464844 613.941406 450.050781 614.3125 C 450.640625 614.683594 451.332031 615.023438 452.125 615.332031 C 452.921875 615.636719 453.875 615.785156 454.992188 615.785156 C 456.699219 615.785156 458.023438 615.382813 458.960938 614.570313 C 459.898438 613.761719 460.367188 612.597656 460.367188 611.082031 C 460.367188 610.234375 460.15625 609.542969 459.730469 609.007813 C 459.308594 608.472656 458.746094 608.019531 458.046875 607.65625 C 457.347656 607.289063 456.554688 606.984375 455.660156 606.730469 C 454.769531 606.476563 453.859375 606.203125 452.941406 605.90625 C 452.019531 605.609375 451.109375 605.253906 450.21875 604.835938 C 449.324219 604.421875 448.527344 603.878906 447.832031 603.210938 C 447.132813 602.535156 446.574219 601.699219 446.148438 600.695313 C 445.726563 599.695313 445.511719 598.457031 445.511719 596.980469 C 445.511719 595.808594 445.746094 594.664063 446.214844 593.550781 C 446.683594 592.433594 447.367188 591.445313 448.265625 590.582031 C 449.164063 589.722656 450.269531 589.027344 451.578125 588.507813 C 452.886719 587.988281 454.382813 587.726563 456.0625 587.726563 C 457.964844 587.726563 459.722656 588.023438 461.324219 588.617188 C 462.933594 589.214844 464.300781 590.046875 465.429688 591.117188 Z M 463.957031 593.949219 "/>
<path style=" stroke:none;fill-rule:nonzero;fill:rgb(19.999695%,19.999695%,19.999695%);fill-opacity:1;" d="M 489.136719 601.601563 L 490.542969 601.601563 C 491.109375 601.601563 491.578125 601.523438 491.949219 601.367188 C 492.320313 601.210938 492.640625 600.960938 492.90625 600.621094 L 501.808594 589.355469 C 502.175781 588.878906 502.566406 588.550781 502.976563 588.367188 C 503.386719 588.175781 503.902344 588.085938 504.527344 588.085938 L 509.703125 588.085938 L 498.839844 601.492188 C 498.5 601.910156 498.171875 602.257813 497.859375 602.539063 C 497.546875 602.820313 497.210938 603.050781 496.859375 603.230469 C 497.34375 603.410156 497.789063 603.664063 498.183594 603.988281 C 498.574219 604.3125 498.957031 604.730469 499.328125 605.238281 L 510.53125 620.335938 L 505.21875 620.335938 C 504.503906 620.335938 503.972656 620.238281 503.625 620.035156 C 503.277344 619.835938 502.980469 619.542969 502.742188 619.15625 L 493.621094 607.246094 C 493.324219 606.855469 492.992188 606.582031 492.617188 606.410156 C 492.246094 606.238281 491.71875 606.152344 491.035156 606.152344 L 489.136719 606.152344 L 489.136719 620.335938 L 483.136719 620.335938 L 483.136719 588.058594 L 489.136719 588.058594 Z M 489.136719 601.601563 "/>
<path style=" stroke:none;fill-rule:nonzero;fill:rgb(19.999695%,19.999695%,19.999695%);fill-opacity:1;" d="M 535.128906 608.15625 L 545.40625 608.15625 L 541.480469 597.429688 C 541.304688 596.957031 541.105469 596.394531 540.894531 595.75 C 540.675781 595.097656 540.464844 594.398438 540.257813 593.636719 C 540.046875 594.398438 539.84375 595.101563 539.644531 595.757813 C 539.441406 596.410156 539.246094 596.980469 539.054688 597.472656 Z M 556.003906 620.335938 L 551.363281 620.335938 C 550.84375 620.335938 550.414063 620.207031 550.078125 619.945313 C 549.746094 619.683594 549.503906 619.363281 549.355469 618.976563 L 546.945313 612.398438 L 533.589844 612.398438 L 531.179688 618.976563 C 531.0625 619.316406 530.824219 619.632813 530.476563 619.914063 C 530.125 620.195313 529.699219 620.335938 529.191406 620.335938 L 524.53125 620.335938 L 537.199219 588.085938 L 543.335938 588.085938 Z M 556.003906 620.335938 "/>
<path style=" stroke:none;fill-rule:nonzero;fill:rgb(50%,50%,50%);fill-opacity:1;" d="M 271.863281 62.8125 C 269.109375 59.992188 266.894531 56.507813 265.839844 54.066406 C 265.339844 52.910156 264.898438 51.75 264.570313 50.617188 C 261.386719 47.605469 259.234375 46.230469 257.066406 45.492188 C 256.105469 48.984375 256.226563 52.761719 257.203125 56.332031 C 258.425781 60.847656 260.96875 65.273438 264.710938 69.125 C 267.597656 72.054688 270.898438 74.378906 274.382813 75.984375 C 274.519531 75.871094 274.65625 75.761719 274.785156 75.636719 C 275.929688 74.53125 276.371094 73.21875 276.378906 71.582031 C 276.382813 69.886719 275.867188 67.875 275.113281 65.625 C 273.886719 64.726563 272.78125 63.773438 271.863281 62.8125 "/>
<path style=" stroke:none;fill-rule:nonzero;fill:rgb(50%,50%,50%);fill-opacity:1;" d="M 302.34375 55.335938 C 301.125 50.824219 298.589844 46.398438 294.839844 42.546875 C 287.609375 35.207031 277.824219 31.597656 268.925781 33.867188 C 266.546875 34.503906 264.277344 35.65625 262.335938 37.28125 C 264.683594 38.054688 266.976563 39.125 269.175781 40.464844 C 271.785156 39.710938 274.703125 40.171875 276.820313 40.753906 C 279.804688 41.574219 282.480469 43.417969 287.691406 48.855469 C 290.441406 51.679688 293.46875 57.425781 293.46875 57.425781 C 295.269531 62.320313 296.386719 66.261719 293.695313 68.816406 C 291.757813 70.664063 288.914063 71.039063 285.84375 70.5 C 285.484375 73.265625 284.589844 75.945313 283.074219 78.363281 C 285.609375 78.59375 288.152344 78.433594 290.625 77.800781 C 290.632813 77.800781 290.640625 77.796875 290.648438 77.792969 C 293.15625 77.117188 295.558594 75.894531 297.570313 74.113281 C 303.066406 69.214844 304.152344 61.917969 302.34375 55.335938 "/>
<path style=" stroke:none;fill-rule:nonzero;fill:rgb(50%,50%,50%);fill-opacity:1;" d="M 412.792969 156.769531 C 379.402344 128.15625 333.761719 94.085938 300.597656 70.230469 C 298.832031 68.960938 294.878906 66.113281 294.550781 66.253906 C 293.757813 66.601563 292.070313 68.570313 292.070313 69.441406 C 292.070313 69.441406 295.304688 72.671875 297.148438 74.660156 C 302.242188 80.171875 307.550781 85.574219 312.972656 90.925781 C 346.605469 110.570313 382.871094 136.847656 411.78125 157.484375 C 412.246094 157.230469 412.566406 156.996094 412.792969 156.769531 "/>
<path style=" stroke:none;fill-rule:nonzero;fill:rgb(0%,45.498657%,62.399292%);fill-opacity:1;" d="M 276.054688 73.320313 C 275.699219 73.5625 274.097656 75.351563 274.042969 75.917969 C 273.964844 76.703125 274.589844 77.257813 274.589844 77.257813 C 332.21875 134.886719 423.53125 170.46875 423.578125 269.25 L 423.578125 269.414063 L 423.507813 269.546875 C 415.160156 284.730469 401.628906 292.121094 393.15625 306.492188 C 377.335938 410.960938 279.972656 444.496094 232.0625 520.902344 C 303.660156 477.492188 437.996094 393.707031 471.964844 282.820313 C 477.925781 263.382813 480.566406 247.34375 480.566406 233.621094 C 480.558594 198.125 462.933594 178.023438 438.835938 154.398438 L 438.089844 153.667969 L 439.105469 153.425781 C 444.523438 152.148438 445.972656 146.921875 445.996094 140.757813 C 446 134.179688 444.269531 126.953125 444.257813 123.449219 C 444.261719 123.003906 444.285156 122.617188 444.359375 122.269531 C 430.855469 116.054688 423.394531 105.214844 413.519531 105.296875 C 412.179688 105.296875 410.796875 105.484375 409.328125 105.90625 C 397.992188 109.242188 393.839844 114.121094 393.753906 129.003906 C 393.703125 139.648438 405.054688 146.476563 410.957031 151.277344 C 412.894531 152.902344 414.332031 154.230469 414.394531 155.859375 C 414.386719 156.480469 414.132813 157.03125 413.667969 157.519531 C 413.773438 157.609375 413.878906 157.703125 413.984375 157.792969 L 410.652344 160.25 C 407.015625 156.777344 345.035156 114.214844 321.699219 97.480469 C 305.871094 87.824219 291.382813 79.476563 277.347656 73.472656 C 277.347656 73.472656 276.578125 72.964844 276.054688 73.320313 "/>
<path style=" stroke:none;fill-rule:nonzero;fill:rgb(0%,45.498657%,62.399292%);fill-opacity:1;" d="M 413.984375 157.789063 C 413.878906 157.699219 413.773438 157.609375 413.667969 157.519531 C 413.261719 157.949219 412.695313 158.335938 411.984375 158.675781 L 411.671875 158.824219 L 411.394531 158.628906 C 385.097656 139.851563 352.65625 116.367188 321.699219 97.480469 C 345.035156 114.214844 407.015625 156.777344 410.652344 160.246094 Z M 413.984375 157.789063 "/>
<path style=" stroke:none;fill-rule:nonzero;fill:rgb(19.999695%,19.999695%,19.999695%);fill-opacity:1;" d="M 264.160156 48.828125 C 265.496094 50.023438 266.996094 51.5 268.75 53.347656 L 268.847656 53.449219 C 271.96875 56.699219 275.304688 63.089844 275.316406 63.109375 L 275.347656 63.171875 C 275.777344 64.359375 276.179688 65.496094 276.511719 66.589844 C 279.070313 68.253906 282 69.617188 284.804688 70.28125 C 284.917969 69.402344 284.992188 68.515625 284.992188 67.617188 C 284.992188 65.472656 284.683594 63.304688 284.105469 61.199219 C 282.769531 56.269531 280.015625 51.414063 275.9375 47.183594 C 273.496094 44.675781 270.789063 42.570313 267.933594 40.929688 C 267.257813 41.25 266.617188 41.671875 266.039063 42.226563 C 264.117188 44.050781 263.75 46.34375 264.160156 48.828125 "/>
<path style=" stroke:none;fill-rule:nonzero;fill:rgb(19.999695%,19.999695%,19.999695%);fill-opacity:1;" d="M 268.53125 78.957031 L 268.511719 78.957031 C 262.757813 78.945313 256.011719 75.445313 251.160156 70.996094 C 246.167969 66.382813 241.871094 58.757813 241.851563 52.527344 C 241.847656 50.023438 242.570313 47.710938 244.285156 45.996094 C 246.226563 44.054688 248.792969 43.449219 251.226563 43.453125 C 253.203125 43.453125 255.113281 43.84375 256.632813 44.269531 C 256.882813 44.339844 257.128906 44.417969 257.375 44.5 C 258.179688 42.148438 259.507813 39.960938 261.4375 38.082031 C 258.878906 37.296875 256.269531 36.875 253.683594 36.875 C 251.742188 36.875 249.816406 37.109375 247.933594 37.589844 C 245.238281 38.308594 242.664063 39.632813 240.527344 41.550781 C 236.382813 45.265625 234.605469 50.277344 234.601563 55.445313 C 234.601563 57.59375 234.910156 59.765625 235.492188 61.871094 C 236.824219 66.804688 239.589844 71.65625 243.65625 75.890625 C 249.96875 82.367188 258.046875 86.195313 265.914063 86.191406 C 267.855469 86.191406 269.78125 85.960938 271.644531 85.488281 L 271.691406 85.472656 C 274.375 84.75 276.9375 83.433594 279.074219 81.523438 C 280.191406 80.515625 281.125 79.410156 281.910156 78.238281 C 279.71875 77.929688 277.714844 77.167969 275.597656 76.292969 C 273.730469 78.042969 271.136719 78.957031 268.53125 78.957031 "/>
<path style=" stroke:none;fill-rule:nonzero;fill:rgb(19.999695%,19.999695%,19.999695%);fill-opacity:1;" d="M 277.414063 71.578125 C 277.421875 73.40625 276.738281 75.214844 275.367188 76.523438 C 275.339844 76.546875 275.367188 76.523438 275.503906 76.386719 C 277.621094 77.261719 279.511719 78.230469 281.703125 78.539063 C 283.316406 76.125 284.488281 72.820313 284.839844 69.996094 C 282.035156 69.328125 279.003906 68.039063 276.445313 66.371094 C 276.988281 68.164063 277.414063 70.046875 277.414063 71.578125 "/>
<path style=" stroke:none;fill-rule:nonzero;fill:rgb(19.999695%,19.999695%,19.999695%);fill-opacity:1;" d="M 257.265625 44.464844 C 259.347656 45.167969 261.574219 46.523438 264.257813 48.917969 C 263.847656 46.433594 264.265625 44.199219 266.1875 42.375 C 266.769531 41.824219 267.257813 41.25 267.933594 40.925781 C 265.835938 39.71875 263.574219 38.761719 261.359375 38.082031 C 259.429688 39.960938 258.070313 42.113281 257.265625 44.464844 "/>
</g>
</svg>
